<svg width="72" height="48" viewBox="0 0 72 48" fill="none" xmlns="http://www.w3.org/2000/svg">
<path d="M6 0.5H70.7V47.5H6C2.96244 47.5 0.5 45.0376 0.5 42V6C0.5 2.96243 2.96243 0.5 6 0.5Z" fill="white"/>
<path d="M36.9844 28H35.3379V21.7949C34.7363 22.3574 34.0273 22.7734 33.2109 23.043V21.5488C33.6406 21.4082 34.1074 21.1426 34.6113 20.752C35.1152 20.3574 35.4609 19.8984 35.6484 19.375H36.9844V28Z" fill="#048AA7"/>
<path d="M6 0.5H70.7V47.5H6C2.96244 47.5 0.5 45.0376 0.5 42V6C0.5 2.96243 2.96243 0.5 6 0.5Z" stroke="#048AA7"/>
</svg>
